<?xml version="1.0" encoding="UTF-8" standalone="no"?><!DOCTYPE svg PUBLIC "-//W3C//DTD SVG 1.1//EN" "http://www.w3.org/Graphics/SVG/1.1/DTD/svg11.dtd"><svg width="100%" height="100%" viewBox="0 0 64 89" version="1.1" xmlns="http://www.w3.org/2000/svg" xmlns:xlink="http://www.w3.org/1999/xlink" xml:space="preserve" xmlns:serif="http://www.serif.com/" style="fill-rule:evenodd;clip-rule:evenodd;stroke-linejoin:round;stroke-miterlimit:2;"><g><path d="M63.598,6.738c-0.739,-0.365 -1.504,0.414 -1.988,1.088c-0.483,0.674 -1.324,1.407 -2.017,0.958c0.031,-0.313 -0.012,-0.612 -0.128,-0.899c-1.336,0.956 -0.94,2.35 -1.581,3.636c-0.682,1.371 -2.228,2.619 -3.205,3.791c-2.796,3.359 -8.646,2.456 -12.764,3.62c-1.334,0.377 -9.024,2.567 -7.487,-1.206c0.471,-1.156 1.552,-2.121 2.039,-3.427c1.605,-4.302 3.706,-12.085 -2.21,-13.582c-3.982,-1.008 -7.875,0.957 -8.019,5.422c-0.074,2.316 -0.452,4.952 0.416,7.166c0.589,1.501 2.486,2.861 2.199,4.588c-0.474,2.847 -4.992,2.928 -7.132,2.652c-3.042,-0.392 -6.02,-1.619 -8.756,-2.978c-2.518,-1.252 -3.826,-4.268 -5.71,-6.236c-1.28,-1.337 -3.512,-6.29 -3.701,-2.123c-0.934,-0.907 -1.867,-1.814 -2.801,-2.721c-0.601,0.419 -0.823,1.238 -0.735,1.972c0.089,0.733 0.436,1.405 0.776,2.058c1.089,2.09 3.18,1.797 4.276,3.965c1.608,3.181 4.665,6.555 7.498,8.716c3.082,2.353 7.512,2.95 9.066,6.973c2.118,5.482 0.744,11.197 1.307,16.837c0.246,2.467 -0.246,4.05 -0.808,6.46c-0.73,3.132 -0.446,6.382 -0.834,9.557c-0.735,6.011 -3.089,10.91 -2.582,16.974c0.056,0.667 0.123,1.351 -0.056,1.995c-0.166,0.598 -0.531,1.116 -0.889,1.621c-0.685,0.964 -2.776,2.966 -2.27,4.317c0.452,1.208 2.175,1.323 3.115,0.685c0.987,-0.67 1.107,-2.223 1.507,-3.257c2.786,-7.213 6.577,-13.745 7.954,-21.626l2.63,-8.289c0.412,-0.03 0.329,0.756 0.41,1.163c1.118,5.641 1.621,10.575 2.525,13.538c0.524,1.722 0.826,3.244 2.404,7.262c1.64,4.177 3.528,6.732 6.68,9.837c0.454,0.448 0.937,0.912 1.548,1.079c0.612,0.167 1.385,-0.084 1.578,-0.696c0.966,-3.058 -2.526,-4.179 -4.297,-6.143c-0.643,-0.713 -0.869,-1.707 -1.038,-2.658c-1.077,-6.065 -0.448,-12.09 -0.742,-18.188c-0.258,-5.341 -0.788,-10.632 -0.802,-16.085c-0.01,-4.032 -0.619,-8.592 -0.007,-12.572c0.69,-4.486 4.237,-5.579 7.529,-7.914c1.772,-1.258 3.722,-2.08 5.614,-3.206c2.315,-1.378 4.481,-3.051 6.292,-5.066c1.46,-1.623 3.614,-3.823 4.636,-6.161c0.417,-0.952 0.644,-1.928 0.56,-2.897Z" style="fill:#ae7e5a;"/><path d="M35.271,26.483c0.18,0.157 0.329,0.324 0.47,0.511c0.448,0.591 0.248,2.381 0.044,3.082c-0.812,2.794 -2.142,4.385 -4.324,5.506c-0.739,0.38 -1.514,-0.396 -2.231,-0.824c-2.056,-1.228 -3.113,-3.916 -2.741,-6.179c0.391,-2.383 3.233,-3.345 4.897,-1.186c0.302,-0.684 0.584,-0.87 1.265,-1.196c0.854,-0.409 1.905,-0.337 2.62,0.286Z" style="fill:#fff;"/></g></svg>