<?xml version="1.0" encoding="utf-8"?>
<!-- Generator: Adobe Illustrator 16.0.4, SVG Export Plug-In . SVG Version: 6.00 Build 0)  -->
<!DOCTYPE svg PUBLIC "-//W3C//DTD SVG 1.1//EN" "http://www.w3.org/Graphics/SVG/1.1/DTD/svg11.dtd">
<svg version="1.1" id="Vrstva_1" xmlns="http://www.w3.org/2000/svg" xmlns:xlink="http://www.w3.org/1999/xlink" x="0px" y="0px"
	 width="151px" height="41px" viewBox="0 0 151 41" enable-background="new 0 0 151 41" xml:space="preserve">
<g>
	<polygon fill="#452600" points="71.801,1.023 66.345,10.431 60.78,1.023 45.862,1.023 58.108,20.172 45.696,39.987 60.112,39.987 
		65.956,29.856 71.69,39.987 86.44,39.987 74.139,20.172 86.33,1.023 	"/>
	<rect x="94" y="1.023" fill="#877359" width="12" height="38.964"/>
	<polygon fill="#877359" points="114,1.023 114,11.934 126.064,11.934 126.064,39.987 138,39.987 138,11.934 150,11.934 150,1.023 	
		"/>
	<g>
		<path fill="#452600" d="M29.158,16.169c0.478,1.284,0.682,2.723,0.48,4.252c-0.823,6.225-4.1,10.048-8.705,10.048
			c-4.606,0-7.994-4.211-8.654-10.048c-0.173-1.532,0.034-2.972,0.506-4.256c-9.353,0.549-2.387-6.527-2.526-8.855
			c2.962,1.481-2.87,7.934,5.728,4.233c1.097-0.469,2.863-0.99,4.942-0.99c2.079,0,3.847,0.521,4.943,0.99
			c8.597,3.701,2.766-2.752,5.728-4.233C31.46,9.631,38.382,16.669,29.158,16.169 M20.929,0.3C7.85,0.3,0,9.819,0,20.561
			c0,10.632,7.794,20.15,20.929,20.15c13.137,0,20.875-9.519,20.875-20.15C41.804,9.819,34.01,0.3,20.929,0.3"/>
	</g>
</g>
</svg>
